<svg width="115" height="52" viewBox="0 0 115 52" fill="none" xmlns="http://www.w3.org/2000/svg">
<path d="M23.3987 44.1982C18.0584 44.2799 14.0517 42.1234 13.7058 37.6502C13.6979 37.5941 13.7024 37.5371 13.719 37.483C13.7355 37.429 13.7637 37.3793 13.8015 37.3375C13.8394 37.2958 13.8859 37.263 13.9377 37.2415C13.9896 37.22 14.0455 37.2103 14.1015 37.2132H19.0461C19.1713 37.2044 19.2949 37.2451 19.3909 37.3266C19.4868 37.4082 19.5476 37.5242 19.5602 37.6502C19.8718 39.2879 21.224 40.2467 23.6106 40.2467C26.181 40.2467 27.9726 38.8101 27.9726 35.5754V33.2209C27.2964 34.1389 26.4112 34.8792 25.3916 35.3793C24.3721 35.8794 23.2483 36.1246 22.1151 36.0941C16.0613 36.0941 12.8958 31.5831 12.8958 25.7958C12.8958 20.0086 16.2763 15.375 21.8097 15.375C24.3428 15.375 26.3212 16.252 27.7046 17.8898L27.6267 16.0917C27.619 16.0341 27.6242 15.9755 27.642 15.9203C27.6598 15.865 27.6898 15.8145 27.7296 15.7725C27.7694 15.7306 27.8181 15.6982 27.872 15.6778C27.926 15.6574 27.9837 15.6495 28.0411 15.6548H33.1072C33.2218 15.6556 33.3315 15.7019 33.4125 15.7837C33.4936 15.8654 33.5395 15.9761 33.5403 16.0917L33.4219 26.2328L33.5029 35.6634C33.5278 40.844 30.1255 44.1982 23.3987 44.1982ZM23.3676 32.1835C26.2589 32.1835 27.8012 30.1056 27.8417 25.953C27.8791 21.6809 26.3368 19.3264 23.4797 19.2856C20.47 19.207 18.9277 21.442 18.9277 25.5538C18.9277 29.9862 20.5105 32.2213 23.3676 32.1835Z" fill="white"/>
<path d="M36.2199 36.2137C36.105 36.2129 35.995 36.1667 35.9134 36.0851C35.8319 36.0034 35.7853 35.8927 35.7837 35.7768L35.9426 25.9155L35.7837 16.0919C35.7853 15.976 35.8319 15.8653 35.9134 15.7836C35.995 15.702 36.105 15.6558 36.2199 15.6549H41.2829C41.3389 15.6521 41.3948 15.6617 41.4467 15.6832C41.4985 15.7047 41.545 15.7375 41.5829 15.7793C41.6207 15.821 41.6489 15.8707 41.6654 15.9248C41.682 15.9788 41.6865 16.0359 41.6786 16.0919L41.5602 19.1286C43.1429 16.6923 45.8754 15.4946 48.8415 15.4946C49.1202 15.5021 49.3982 15.5284 49.6734 15.5732C49.7924 15.5989 49.8996 15.6639 49.978 15.7578C50.0564 15.8517 50.1016 15.9692 50.1065 16.0919V19.6473C50.1054 19.7026 50.0931 19.7571 50.0704 19.8075C50.0478 19.8579 50.0152 19.9032 49.9747 19.9405C49.9342 19.9778 49.8867 20.0065 49.8349 20.0247C49.7831 20.0429 49.7281 20.0503 49.6734 20.0465C49.4507 20.0126 49.2255 19.999 49.0004 20.0056C44.8067 20.0056 41.7191 22.3601 41.7191 27.0723L41.7596 35.7768C41.7579 35.8927 41.7114 36.0034 41.6298 36.0851C41.5483 36.1667 41.4383 36.2129 41.3234 36.2137H36.2199Z" fill="white"/>
<path d="M52.0071 36.2138C51.8922 36.213 51.7822 36.1668 51.7006 36.0851C51.6191 36.0034 51.5725 35.8928 51.5709 35.7768L51.7204 25.9533L51.5615 16.092C51.5632 15.976 51.6097 15.8654 51.6913 15.7837C51.7728 15.702 51.8828 15.6558 51.9977 15.655H57.2196C57.3348 15.655 57.4452 15.7009 57.527 15.7828C57.6087 15.8647 57.655 15.9758 57.6558 16.092L57.4969 25.9533L57.6558 35.7768C57.655 35.893 57.6087 36.0041 57.527 36.086C57.4452 36.1679 57.3348 36.2138 57.2196 36.2138H52.0071ZM52.0476 13.6589C51.9324 13.6572 51.8224 13.6103 51.7409 13.5282C51.6595 13.446 51.613 13.335 51.6114 13.2188V8.70778C51.613 8.59156 51.6595 8.48056 51.7409 8.39838C51.8224 8.31619 51.9324 8.2693 52.0476 8.26768H57.1916C57.2498 8.26643 57.3077 8.27686 57.3618 8.29838C57.416 8.3199 57.4654 8.35207 57.5072 8.39302C57.5489 8.43397 57.5822 8.48288 57.605 8.53692C57.6279 8.59095 57.6398 8.64903 57.6402 8.70778V13.2188C57.6394 13.3347 57.5936 13.4457 57.5127 13.528C57.4317 13.6102 57.322 13.6572 57.2072 13.6589H52.0476Z" fill="white"/>
<path d="M72.661 35.3773C72.6526 35.5031 72.6117 35.6245 72.5423 35.7293C72.4728 35.8341 72.3773 35.9187 72.2653 35.9746C71.0895 36.3638 69.8633 36.5756 68.6262 36.6033C65.1989 36.6033 61.8994 34.8461 61.8994 30.1779L61.9399 19.8765H59.7215C59.6064 19.8757 59.4962 19.8289 59.4151 19.7465C59.334 19.664 59.2884 19.5526 59.2885 19.4364V16.0917C59.2893 15.976 59.3352 15.8654 59.4162 15.7836C59.4972 15.7018 59.6069 15.6555 59.7215 15.6547H61.9025L61.862 10.9394C61.8636 10.8235 61.9102 10.7128 61.9918 10.6311C62.0733 10.5495 62.1833 10.5033 62.2982 10.5024H67.4422C67.5571 10.5033 67.6671 10.5495 67.7487 10.6311C67.8302 10.7128 67.8768 10.8235 67.8784 10.9394L67.8379 15.6547H72.2684C72.3833 15.6555 72.4933 15.7017 72.5748 15.7834C72.6564 15.8651 72.703 15.9757 72.7046 16.0917V19.4458C72.7038 19.5623 72.6576 19.6738 72.5759 19.7561C72.4943 19.8385 72.3838 19.8851 72.2684 19.8859H67.7943L67.8348 30.027C67.8348 31.7842 68.7041 32.3406 70.0158 32.3406C70.7659 32.3379 71.5122 32.2322 72.2341 32.0263C72.2834 32.0138 72.3348 32.0123 72.3847 32.0219C72.4346 32.0315 72.4818 32.052 72.5231 32.0819C72.5643 32.1119 72.5986 32.1505 72.6235 32.1952C72.6484 32.2399 72.6633 32.2895 72.6672 32.3406L72.661 35.3773Z" fill="white"/>
<path d="M74.9167 36.2136C74.8018 36.2128 74.6917 36.1666 74.6102 36.0849C74.5287 36.0032 74.4821 35.8926 74.4805 35.7767L74.6799 22.2405L74.4805 8.7233C74.4821 8.60708 74.5286 8.49609 74.61 8.4139C74.6915 8.33172 74.8015 8.28483 74.9167 8.2832H79.9828C80.0976 8.28484 80.2073 8.33184 80.2883 8.41411C80.3692 8.49637 80.415 8.60737 80.4158 8.7233L80.2196 22.2563L80.4158 35.7924C80.415 35.908 80.3691 36.0187 80.2881 36.1004C80.207 36.1822 80.0974 36.2285 79.9828 36.2293L74.9167 36.2136Z" fill="white"/>
<path d="M93.1186 42.6011C93.0648 42.7161 92.981 42.814 92.8761 42.8843C92.7712 42.9547 92.6493 42.9948 92.5235 43.0004H87.7378C87.6899 43.0016 87.6425 42.991 87.5998 42.9692C87.5571 42.9475 87.5203 42.9154 87.4929 42.8759C87.4654 42.8364 87.4481 42.7906 87.4424 42.7426C87.4368 42.6947 87.443 42.6461 87.4605 42.6011L89.5573 36.4146L81.4067 16.0539C81.3892 16.009 81.383 15.9604 81.3886 15.9124C81.3943 15.8645 81.4116 15.8187 81.4391 15.7791C81.4665 15.7396 81.5033 15.7075 81.546 15.6858C81.5888 15.6641 81.6362 15.6534 81.684 15.6547H87.501C87.6276 15.6552 87.7513 15.6934 87.8565 15.7644C87.9618 15.8354 88.044 15.9361 88.093 16.0539L92.4861 28.8293L96.1252 16.0916C96.1633 15.9709 96.2366 15.8646 96.3355 15.7866C96.4345 15.7086 96.5545 15.6626 96.6798 15.6547H101.824C101.873 15.6498 101.922 15.6582 101.967 15.6789C102.011 15.6996 102.05 15.7319 102.078 15.7725C102.106 15.8132 102.123 15.8606 102.127 15.9101C102.131 15.9595 102.122 16.0092 102.101 16.0539L93.1186 42.6011Z" fill="white"/>
</svg>
