<svg width="534" height="459" viewBox="0 0 534 459" fill="none" xmlns="http://www.w3.org/2000/svg">
<path opacity="0.25" d="M470 77C426 83.6667 340.8 120.6 352 215C363.2 309.4 194 379.667 108 403" stroke="white"/>
<path opacity="0.25" d="M363 1C319 7.66667 233.8 44.6 245 139C256.2 233.4 -50 363.5 -110 373.5" stroke="white"/>
<path opacity="0.25" d="M506 97C462 103.667 376.8 140.6 388 235C399.2 329.4 230 399.667 144 423" stroke="white"/>
<path opacity="0.25" d="M399 21C355 27.6667 269.8 64.6 281 159C292.2 253.4 81.5 353.167 -4.5 376.5" stroke="white"/>
<path opacity="0.25" d="M533 132C489 138.667 403.8 175.6 415 270C426.2 364.4 257 434.667 171 458" stroke="white"/>
<path opacity="0.25" d="M426 56C382 62.6667 296.8 99.6 308 194C319.2 288.4 150 358.667 64 382" stroke="white"/>
</svg>
