<svg width="525" height="606" viewBox="0 0 525 606" fill="none" xmlns="http://www.w3.org/2000/svg">
<path opacity="0.25" d="M157.908 516.088C198.762 498.441 271.754 441.036 236.894 352.597C202.033 264.157 347.773 153.136 425.001 108.68" stroke="white"/>
<path opacity="0.25" d="M280.729 562.348C321.583 544.7 394.575 487.296 359.714 398.857C324.854 310.417 587.851 106.66 643.329 81.7164" stroke="white"/>
<path opacity="0.25" d="M118.003 505.91C158.857 488.263 231.849 430.859 196.988 342.419C162.128 253.98 307.868 142.958 385.096 98.5021" stroke="white"/>
<path opacity="0.25" d="M240.824 552.17C281.678 534.523 354.67 477.119 319.809 388.679C284.949 300.24 463.313 150.126 540.541 105.67" stroke="white"/>
<path opacity="0.25" d="M82.9829 478.936C123.837 461.288 196.829 403.884 161.968 315.445C127.108 227.005 272.848 115.983 350.076 71.5275" stroke="white"/>
<path opacity="0.25" d="M205.804 525.196C246.658 507.549 319.65 450.145 284.79 361.705C249.929 273.266 395.669 162.244 472.897 117.788" stroke="white"/>
</svg>
